<mxfile host="app.diagrams.net" agent="Mozilla/5.0 (Windows NT 10.0; Win64; x64) AppleWebKit/537.36 (KHTML, like Gecko) Chrome/128.0.0.0 Safari/537.36" version="24.7.14">
  <diagram name="PÃ¡gina-1" id="kEqLO4y_64c-H2jExwrl">
    <mxGraphModel dx="1050" dy="557" grid="1" gridSize="10" guides="1" tooltips="1" connect="1" arrows="1" fold="1" page="1" pageScale="1" pageWidth="827" pageHeight="1169" math="0" shadow="0">
      <root>
        <mxCell id="0" />
        <mxCell id="1" parent="0" />
        <mxCell id="CfojE60jjAwfTsxuG0kk-13" value="" style="whiteSpace=wrap;html=1;strokeColor=#FFFFFF;fontColor=#FFFFFF;fillColor=#000000;rotation=90;" vertex="1" parent="1">
          <mxGeometry x="-25" y="115" width="330" height="200" as="geometry" />
        </mxCell>
        <mxCell id="CfojE60jjAwfTsxuG0kk-12" value="" style="verticalLabelPosition=bottom;verticalAlign=top;html=1;shadow=0;dashed=0;strokeWidth=1;shape=mxgraph.android.phone2;" vertex="1" parent="1">
          <mxGeometry x="30" y="10" width="220" height="410" as="geometry" />
        </mxCell>
        <mxCell id="CfojE60jjAwfTsxuG0kk-16" value="" style="shape=image;html=1;verticalAlign=top;verticalLabelPosition=bottom;labelBackgroundColor=#ffffff;imageAspect=0;aspect=fixed;image=https://cdn1.iconfinder.com/data/icons/iconoir-vol-3/24/menu-128.png;strokeColor=#FFFFFF;fontColor=#FFFFFF;fillColor=#182E3E;" vertex="1" parent="1">
          <mxGeometry x="50" y="60" width="20" height="20" as="geometry" />
        </mxCell>
        <mxCell id="CfojE60jjAwfTsxuG0kk-17" value="Home" style="text;strokeColor=none;align=center;fillColor=none;html=1;verticalAlign=middle;whiteSpace=wrap;rounded=0;fontColor=#FFFFFF;" vertex="1" parent="1">
          <mxGeometry x="70" y="55" width="60" height="30" as="geometry" />
        </mxCell>
        <mxCell id="CfojE60jjAwfTsxuG0kk-18" value="Products" style="text;strokeColor=none;align=center;fillColor=none;html=1;verticalAlign=middle;whiteSpace=wrap;rounded=0;fontColor=#FFFFFF;" vertex="1" parent="1">
          <mxGeometry x="120" y="55" width="60" height="30" as="geometry" />
        </mxCell>
        <mxCell id="CfojE60jjAwfTsxuG0kk-28" value="" style="endArrow=none;html=1;rounded=0;strokeColor=#FFFFFF;fontFamily=Helvetica;fontSize=12;fontColor=#FFFFFF;labelBackgroundColor=#ffffff;jumpSize=110;" edge="1" parent="1">
          <mxGeometry relative="1" as="geometry">
            <mxPoint x="50" y="85" as="sourcePoint" />
            <mxPoint x="235" y="85" as="targetPoint" />
          </mxGeometry>
        </mxCell>
        <mxCell id="CfojE60jjAwfTsxuG0kk-36" value="" style="rounded=0;whiteSpace=wrap;html=1;strokeColor=#FFFFFF;align=center;verticalAlign=top;fontFamily=Helvetica;fontSize=12;fontColor=#FFFFFF;labelBackgroundColor=#ffffff;fillColor=#182E3E;rotation=90;" vertex="1" parent="1">
          <mxGeometry x="40" y="207.5" width="80" height="50" as="geometry" />
        </mxCell>
        <mxCell id="CfojE60jjAwfTsxuG0kk-42" value="" style="rounded=0;whiteSpace=wrap;html=1;strokeColor=#FFFFFF;align=center;verticalAlign=top;fontFamily=Helvetica;fontSize=12;fontColor=#FFFFFF;labelBackgroundColor=#ffffff;fillColor=#182E3E;rotation=90;" vertex="1" parent="1">
          <mxGeometry x="100" y="207.5" width="80" height="50" as="geometry" />
        </mxCell>
        <mxCell id="CfojE60jjAwfTsxuG0kk-45" value="" style="rounded=0;whiteSpace=wrap;html=1;strokeColor=#FFFFFF;align=center;verticalAlign=top;fontFamily=Helvetica;fontSize=12;fontColor=#FFFFFF;labelBackgroundColor=#ffffff;fillColor=#182E3E;rotation=90;" vertex="1" parent="1">
          <mxGeometry x="40" y="300" width="80" height="50" as="geometry" />
        </mxCell>
        <mxCell id="CfojE60jjAwfTsxuG0kk-48" value="" style="rounded=0;whiteSpace=wrap;html=1;strokeColor=#FFFFFF;align=center;verticalAlign=top;fontFamily=Helvetica;fontSize=12;fontColor=#FFFFFF;labelBackgroundColor=#ffffff;fillColor=#182E3E;rotation=90;" vertex="1" parent="1">
          <mxGeometry x="100" y="300" width="80" height="50" as="geometry" />
        </mxCell>
        <mxCell id="CfojE60jjAwfTsxuG0kk-50" value="" style="rounded=0;whiteSpace=wrap;html=1;strokeColor=#FFFFFF;align=center;verticalAlign=top;fontFamily=Helvetica;fontSize=12;fontColor=#FFFFFF;labelBackgroundColor=#ffffff;fillColor=#182E3E;" vertex="1" parent="1">
          <mxGeometry x="50" y="100" width="180" height="80" as="geometry" />
        </mxCell>
        <mxCell id="CfojE60jjAwfTsxuG0kk-51" value="" style="verticalLabelPosition=bottom;shadow=0;dashed=0;align=center;html=1;verticalAlign=top;strokeWidth=1;shape=mxgraph.mockup.misc.shoppingCart;strokeColor=#999999;fontFamily=Helvetica;fontSize=12;fontColor=#FFFFFF;labelBackgroundColor=#ffffff;fillColor=#182E3E;" vertex="1" parent="1">
          <mxGeometry x="180" y="55" width="20" height="20" as="geometry" />
        </mxCell>
        <mxCell id="CfojE60jjAwfTsxuG0kk-52" value="" style="shape=actor;whiteSpace=wrap;html=1;align=center;verticalAlign=top;fontFamily=Helvetica;fontSize=12;labelBackgroundColor=#ffffff;" vertex="1" parent="1">
          <mxGeometry x="210" y="55" width="20" height="20" as="geometry" />
        </mxCell>
        <mxCell id="CfojE60jjAwfTsxuG0kk-53" value="" style="rounded=0;whiteSpace=wrap;html=1;strokeColor=#FFFFFF;align=center;verticalAlign=top;fontFamily=Helvetica;fontSize=12;fontColor=#FFFFFF;labelBackgroundColor=#ffffff;fillColor=#182E3E;rotation=90;" vertex="1" parent="1">
          <mxGeometry x="160" y="300" width="80" height="50" as="geometry" />
        </mxCell>
        <mxCell id="CfojE60jjAwfTsxuG0kk-54" value="" style="rounded=0;whiteSpace=wrap;html=1;strokeColor=#FFFFFF;align=center;verticalAlign=top;fontFamily=Helvetica;fontSize=12;fontColor=#FFFFFF;labelBackgroundColor=#ffffff;fillColor=#182E3E;rotation=90;" vertex="1" parent="1">
          <mxGeometry x="160" y="207.5" width="80" height="50" as="geometry" />
        </mxCell>
        <mxCell id="CfojE60jjAwfTsxuG0kk-55" value="" style="verticalLabelPosition=bottom;verticalAlign=top;html=1;shadow=0;dashed=0;strokeWidth=1;shape=mxgraph.android.phone2;" vertex="1" parent="1">
          <mxGeometry x="320" y="10" width="220" height="410" as="geometry" />
        </mxCell>
        <mxCell id="CfojE60jjAwfTsxuG0kk-57" value="" style="whiteSpace=wrap;html=1;strokeColor=#FFFFFF;fontColor=#FFFFFF;fillColor=#000000;rotation=90;" vertex="1" parent="1">
          <mxGeometry x="270" y="115" width="330" height="200" as="geometry" />
        </mxCell>
        <mxCell id="CfojE60jjAwfTsxuG0kk-58" value="" style="rounded=0;whiteSpace=wrap;html=1;strokeColor=#FFFFFF;align=center;verticalAlign=top;fontFamily=Helvetica;fontSize=12;fontColor=#FFFFFF;labelBackgroundColor=#ffffff;fillColor=#182E3E;rotation=90;" vertex="1" parent="1">
          <mxGeometry x="340" y="75" width="80" height="50" as="geometry" />
        </mxCell>
        <mxCell id="CfojE60jjAwfTsxuG0kk-60" value="" style="rounded=0;whiteSpace=wrap;html=1;strokeColor=#FFFFFF;align=center;verticalAlign=top;fontFamily=Helvetica;fontSize=12;fontColor=#FFFFFF;labelBackgroundColor=#ffffff;fillColor=#182E3E;rotation=90;" vertex="1" parent="1">
          <mxGeometry x="340" y="170" width="80" height="50" as="geometry" />
        </mxCell>
        <mxCell id="CfojE60jjAwfTsxuG0kk-61" value="" style="rounded=0;whiteSpace=wrap;html=1;strokeColor=#FFFFFF;align=center;verticalAlign=top;fontFamily=Helvetica;fontSize=12;fontColor=#FFFFFF;labelBackgroundColor=#ffffff;fillColor=#182E3E;rotation=90;" vertex="1" parent="1">
          <mxGeometry x="340" y="265" width="80" height="50" as="geometry" />
        </mxCell>
        <mxCell id="CfojE60jjAwfTsxuG0kk-71" value="Home" style="text;strokeColor=none;align=center;fillColor=none;html=1;verticalAlign=middle;whiteSpace=wrap;rounded=0;fontColor=#FFFFFF;" vertex="1" parent="1">
          <mxGeometry x="590" y="300" width="60" height="30" as="geometry" />
        </mxCell>
        <mxCell id="CfojE60jjAwfTsxuG0kk-72" value="" style="rounded=0;whiteSpace=wrap;html=1;strokeColor=#FFFFFF;align=center;verticalAlign=top;fontFamily=Helvetica;fontSize=12;fontColor=#FFFFFF;labelBackgroundColor=#ffffff;fillColor=#182E3E;" vertex="1" parent="1">
          <mxGeometry x="350" y="340" width="170" height="30" as="geometry" />
        </mxCell>
        <mxCell id="CfojE60jjAwfTsxuG0kk-74" value="Buy now" style="text;strokeColor=none;align=center;fillColor=none;html=1;verticalAlign=middle;whiteSpace=wrap;rounded=0;fontColor=#FFFFFF;" vertex="1" parent="1">
          <mxGeometry x="400" y="340" width="60" height="30" as="geometry" />
        </mxCell>
        <mxCell id="CfojE60jjAwfTsxuG0kk-75" value="" style="verticalLabelPosition=bottom;shadow=0;dashed=0;align=center;html=1;verticalAlign=top;strokeWidth=1;shape=mxgraph.mockup.misc.shoppingCart;strokeColor=#999999;fontFamily=Helvetica;fontSize=12;fontColor=#FFFFFF;labelBackgroundColor=#ffffff;fillColor=#182E3E;" vertex="1" parent="1">
          <mxGeometry x="460" y="345" width="20" height="20" as="geometry" />
        </mxCell>
        <mxCell id="CfojE60jjAwfTsxuG0kk-76" value="" style="whiteSpace=wrap;html=1;aspect=fixed;strokeColor=#FFFFFF;align=center;verticalAlign=top;fontFamily=Helvetica;fontSize=12;fontColor=#FFFFFF;labelBackgroundColor=#ffffff;fillColor=#182E3E;" vertex="1" parent="1">
          <mxGeometry x="490" y="65" width="20" height="20" as="geometry" />
        </mxCell>
        <mxCell id="CfojE60jjAwfTsxuG0kk-77" value="" style="whiteSpace=wrap;html=1;aspect=fixed;strokeColor=#FFFFFF;align=center;verticalAlign=top;fontFamily=Helvetica;fontSize=12;fontColor=#FFFFFF;labelBackgroundColor=#ffffff;fillColor=#182E3E;" vertex="1" parent="1">
          <mxGeometry x="490" y="160" width="20" height="20" as="geometry" />
        </mxCell>
        <mxCell id="CfojE60jjAwfTsxuG0kk-78" value="" style="whiteSpace=wrap;html=1;aspect=fixed;strokeColor=#FFFFFF;align=center;verticalAlign=top;fontFamily=Helvetica;fontSize=12;fontColor=#FFFFFF;labelBackgroundColor=#ffffff;fillColor=#182E3E;" vertex="1" parent="1">
          <mxGeometry x="492" y="255" width="20" height="20" as="geometry" />
        </mxCell>
        <mxCell id="CfojE60jjAwfTsxuG0kk-79" style="edgeStyle=orthogonalEdgeStyle;rounded=0;orthogonalLoop=1;jettySize=auto;html=1;exitX=0;exitY=0.5;exitDx=0;exitDy=0;entryX=0;entryY=0.75;entryDx=0;entryDy=0;strokeColor=#23445D;fontFamily=Helvetica;fontSize=12;fontColor=#FFFFFF;labelBackgroundColor=#ffffff;" edge="1" parent="1" source="CfojE60jjAwfTsxuG0kk-78" target="CfojE60jjAwfTsxuG0kk-78">
          <mxGeometry relative="1" as="geometry" />
        </mxCell>
        <mxCell id="CfojE60jjAwfTsxuG0kk-82" value="" style="shape=image;html=1;verticalAlign=top;verticalLabelPosition=bottom;labelBackgroundColor=#ffffff;imageAspect=0;aspect=fixed;image=https://cdn4.iconfinder.com/data/icons/meBaze-Freebies/128/ok.png;strokeColor=#FFFFFF;align=center;fontFamily=Helvetica;fontSize=12;fontColor=#FFFFFF;fillColor=#182E3E;" vertex="1" parent="1">
          <mxGeometry x="492" y="246" width="28" height="28" as="geometry" />
        </mxCell>
        <mxCell id="CfojE60jjAwfTsxuG0kk-83" value="" style="shape=image;html=1;verticalAlign=top;verticalLabelPosition=bottom;labelBackgroundColor=#ffffff;imageAspect=0;aspect=fixed;image=https://cdn4.iconfinder.com/data/icons/meBaze-Freebies/128/ok.png;strokeColor=#FFFFFF;align=center;fontFamily=Helvetica;fontSize=12;fontColor=#FFFFFF;fillColor=#182E3E;" vertex="1" parent="1">
          <mxGeometry x="490" y="152" width="28" height="28" as="geometry" />
        </mxCell>
        <mxCell id="CfojE60jjAwfTsxuG0kk-84" value="" style="shape=image;html=1;verticalAlign=top;verticalLabelPosition=bottom;labelBackgroundColor=#ffffff;imageAspect=0;aspect=fixed;image=https://cdn4.iconfinder.com/data/icons/meBaze-Freebies/128/ok.png;strokeColor=#FFFFFF;align=center;fontFamily=Helvetica;fontSize=12;fontColor=#FFFFFF;fillColor=#182E3E;" vertex="1" parent="1">
          <mxGeometry x="492" y="57" width="28" height="28" as="geometry" />
        </mxCell>
        <mxCell id="CfojE60jjAwfTsxuG0kk-92" value="" style="whiteSpace=wrap;html=1;strokeColor=#FFFFFF;fontColor=#FFFFFF;fillColor=#000000;rotation=90;" vertex="1" parent="1">
          <mxGeometry x="525" y="115" width="330" height="200" as="geometry" />
        </mxCell>
        <mxCell id="CfojE60jjAwfTsxuG0kk-94" value="" style="verticalLabelPosition=bottom;verticalAlign=top;html=1;shadow=0;dashed=0;strokeWidth=1;shape=mxgraph.android.phone2;" vertex="1" parent="1">
          <mxGeometry x="580" y="10" width="220" height="410" as="geometry" />
        </mxCell>
        <mxCell id="CfojE60jjAwfTsxuG0kk-95" value="" style="shape=image;html=1;verticalAlign=top;verticalLabelPosition=bottom;labelBackgroundColor=#ffffff;imageAspect=0;aspect=fixed;image=https://cdn1.iconfinder.com/data/icons/iconoir-vol-3/24/qr-code-128.png;strokeColor=#FFFFFF;align=center;fontFamily=Helvetica;fontSize=12;fontColor=#FFFFFF;fillColor=#182E3E;" vertex="1" parent="1">
          <mxGeometry x="620" y="102.5" width="135" height="135" as="geometry" />
        </mxCell>
        <mxCell id="CfojE60jjAwfTsxuG0kk-96" value="" style="shape=image;html=1;verticalAlign=top;verticalLabelPosition=bottom;labelBackgroundColor=#ffffff;imageAspect=0;aspect=fixed;image=https://cdn0.iconfinder.com/data/icons/evericons-24px-vol-2/24/shield-ok-128.png;strokeColor=#FFFFFF;align=center;fontFamily=Helvetica;fontSize=12;fontColor=#FFFFFF;fillColor=#182E3E;" vertex="1" parent="1">
          <mxGeometry x="658.5" y="282" width="58" height="58" as="geometry" />
        </mxCell>
        <mxCell id="CfojE60jjAwfTsxuG0kk-97" value="secure payment" style="text;strokeColor=none;align=center;fillColor=none;html=1;verticalAlign=middle;whiteSpace=wrap;rounded=0;fontColor=#FFFFFF;" vertex="1" parent="1">
          <mxGeometry x="650" y="245" width="75" height="30" as="geometry" />
        </mxCell>
        <mxCell id="CfojE60jjAwfTsxuG0kk-99" value="" style="endArrow=none;html=1;rounded=0;strokeColor=#FFFFFF;fontFamily=Helvetica;fontSize=12;fontColor=#FFFFFF;labelBackgroundColor=#ffffff;jumpSize=110;" edge="1" parent="1">
          <mxGeometry relative="1" as="geometry">
            <mxPoint x="355" y="150" as="sourcePoint" />
            <mxPoint x="520" y="150" as="targetPoint" />
          </mxGeometry>
        </mxCell>
        <mxCell id="CfojE60jjAwfTsxuG0kk-100" value="" style="endArrow=none;html=1;rounded=0;strokeColor=#FFFFFF;fontFamily=Helvetica;fontSize=12;fontColor=#FFFFFF;labelBackgroundColor=#ffffff;jumpSize=110;" edge="1" parent="1">
          <mxGeometry relative="1" as="geometry">
            <mxPoint x="355" y="245" as="sourcePoint" />
            <mxPoint x="520" y="245" as="targetPoint" />
          </mxGeometry>
        </mxCell>
      </root>
    </mxGraphModel>
  </diagram>
</mxfile>
